# xmcd
#
# Track frame offsets:
#	150
#	14472
#	31653
#	47077
#	62854
#	77133
#	90895
#	109046
#	125678
#	139400
#	156679
#
# Disc length: 2314 seconds
#
# Revision: 0
# Processed by: cddbd v1.5.2PL0 Copyright (c) Steve Scherf et al.
# Submitted via: EasyCDDAExtractor 16.0.8.1
#
DISCID=9109080b
DTITLE=Paul Brewster - 3 Minute Heartache
DYEAR=2013
DGENRE=Americana
TTITLE0=Too Country
TTITLE1=Dad's Guitar
TTITLE2=Love Online
TTITLE3=For You
TTITLE4=You Look Like I Need a Drink
TTITLE5=3 Minute Heartache
TTITLE6=I Just Want to Touch You
TTITLE7=On My Knees
TTITLE8=Hillbilly Blues
TTITLE9=Don't Look Me in the Eye
TTITLE10=Bluegrass Melodies
EXTD=
EXTT0=
EXTT1=
EXTT2=
EXTT3=
EXTT4=
EXTT5=
EXTT6=
EXTT7=
EXTT8=
EXTT9=
EXTT10=
PLAYORDER=
